HIERARCHY
ROOT Hips
{
	OFFSET 0.000000 100.481300 0.000000
	CHANNELS 6 Xposition Yposition Zposition Xrotation Yrotation Zrotation
	JOINT Spine
	{
		OFFSET -0.279200 12.230698 -2.892100
		CHANNELS 3 Xrotation Yrotation Zrotation
		JOINT Spine1
		{
			OFFSET -0.325700 14.269203 -3.374200
			CHANNELS 3 Xrotation Yrotation Zrotation
			JOINT Spine2
			{
				OFFSET -0.372300 16.307602 -0.352600
				CHANNELS 3 Xrotation Yrotation Zrotation
				JOINT Neck
				{
					OFFSET -0.418800 17.814194 8.416900
					CHANNELS 3 Xrotation Yrotation Zrotation
					JOINT Head
					{
						OFFSET 0.000000 7.031097 3.806800
						CHANNELS 3 Xrotation Yrotation Zrotation
						JOINT HeadTop_End
						{
							OFFSET 0.000000 24.646606 12.978600
							CHANNELS 3 Xrotation Yrotation Zrotation
							End Site
							{
								OFFSET 0.000000 27.854965 0.000000
							}
						}
					}
				}
				JOINT LeftShoulder
				{
					OFFSET 16.952999 14.495407 -7.737500
					CHANNELS 3 Xrotation Yrotation Zrotation
					JOINT LeftArm
					{
						OFFSET 9.308998 -2.777710 0.208600
						CHANNELS 3 Xrotation Yrotation Zrotation
						JOINT LeftForeArm
						{
							OFFSET 29.972298 0.000000 0.000000
							CHANNELS 3 Xrotation Yrotation Zrotation
							JOINT LeftHand
							{
								OFFSET 26.026505 0.000000 0.000000
								CHANNELS 3 Xrotation Yrotation Zrotation
								JOINT LeftHandThumb1
								{
									OFFSET 12.240501 -7.147949 9.207150
									CHANNELS 3 Xrotation Yrotation Zrotation
									JOINT LeftHandThumb2
									{
										OFFSET 4.138618 -2.389435 2.389433
										CHANNELS 3 Xrotation Yrotation Zrotation
										JOINT LeftHandThumb3
										{
											OFFSET 2.726913 -1.574387 1.574386
											CHANNELS 3 Xrotation Yrotation Zrotation
											JOINT LeftHandThumb4
											{
												OFFSET 3.941010 -2.275345 2.275342
												CHANNELS 3 Xrotation Yrotation Zrotation
												End Site
												{
													OFFSET -0.005798 5.087799 0.009903
												}
											}
										}
									}
								}
								JOINT LeftHandIndex1
								{
									OFFSET 24.424698 -1.985611 5.953459
									CHANNELS 3 Xrotation Yrotation Zrotation
									JOINT LeftHandIndex2
									{
										OFFSET 6.426697 0.000000 0.000000
										CHANNELS 3 Xrotation Yrotation Zrotation
										JOINT LeftHandIndex3
										{
											OFFSET 5.337898 0.000000 0.000000
											CHANNELS 3 Xrotation Yrotation Zrotation
											JOINT LeftHandIndex4
											{
												OFFSET 4.409401 0.000000 0.000000
												CHANNELS 3 Xrotation Yrotation Zrotation
												End Site
												{
													OFFSET 0.000000 4.409363 0.014373
												}
											}
										}
									}
								}
								JOINT LeftHandMiddle1
								{
									OFFSET 23.810104 0.000000 0.000000
									CHANNELS 3 Xrotation Yrotation Zrotation
									JOINT LeftHandMiddle2
									{
										OFFSET 7.176498 0.000000 0.000000
										CHANNELS 3 Xrotation Yrotation Zrotation
										JOINT LeftHandMiddle3
										{
											OFFSET 6.774902 0.000000 0.000000
											CHANNELS 3 Xrotation Yrotation Zrotation
											JOINT LeftHandMiddle4
											{
												OFFSET 5.403328 0.000000 0.000000
												CHANNELS 3 Xrotation Yrotation Zrotation
												End Site
												{
													OFFSET -0.027702 5.403244 0.017414
												}
											}
										}
									}
								}
								JOINT LeftHandRing1
								{
									OFFSET 22.908401 -0.839279 -6.020567
									CHANNELS 3 Xrotation Yrotation Zrotation
									JOINT LeftHandRing2
									{
										OFFSET 6.337502 0.000000 0.000000
										CHANNELS 3 Xrotation Yrotation Zrotation
										JOINT LeftHandRing3
										{
											OFFSET 5.779297 0.000000 0.000000
											CHANNELS 3 Xrotation Yrotation Zrotation
											JOINT LeftHandRing4
											{
												OFFSET 4.965698 0.000000 0.000000
												CHANNELS 3 Xrotation Yrotation Zrotation
												End Site
												{
													OFFSET 0.000000 4.965668 0.016186
												}
											}
										}
									}
								}
								JOINT LeftHandPinky1
								{
									OFFSET 20.037003 -1.530319 -10.950146
									CHANNELS 3 Xrotation Yrotation Zrotation
									JOINT LeftHandPinky2
									{
										OFFSET 5.254700 0.000000 0.000000
										CHANNELS 3 Xrotation Yrotation Zrotation
										JOINT LeftHandPinky3
										{
											OFFSET 4.810204 0.000000 0.000000
											CHANNELS 3 Xrotation Yrotation Zrotation
											JOINT LeftHandPinky4
											{
												OFFSET 3.647202 0.000000 0.000000
												CHANNELS 3 Xrotation Yrotation Zrotation
												End Site
												{
													OFFSET 0.000000 3.647186 0.011889
												}
											}
										}
									}
								}
							}
						}
					}
				}
				JOINT RightShoulder
				{
					OFFSET -15.141001 14.495407 -7.737500
					CHANNELS 3 Xrotation Yrotation Zrotation
					JOINT RightArm
					{
						OFFSET -9.308998 -2.777710 0.208500
						CHANNELS 3 Xrotation Yrotation Zrotation
						JOINT RightForeArm
						{
							OFFSET -29.972300 0.000000 0.000000
							CHANNELS 3 Xrotation Yrotation Zrotation
							JOINT RightHand
							{
								OFFSET -26.026505 0.000000 0.000000
								CHANNELS 3 Xrotation Yrotation Zrotation
								JOINT RightHandThumb1
								{
									OFFSET -12.240601 -7.148026 9.207092
									CHANNELS 3 Xrotation Yrotation Zrotation
									JOINT RightHandThumb2
									{
										OFFSET -4.138618 -2.389435 2.389433
										CHANNELS 3 Xrotation Yrotation Zrotation
										JOINT RightHandThumb3
										{
											OFFSET -2.726974 -1.574417 1.574421
											CHANNELS 3 Xrotation Yrotation Zrotation
											JOINT RightHandThumb4
											{
												OFFSET -3.941010 -2.275345 2.275343
												CHANNELS 3 Xrotation Yrotation Zrotation
												End Site
												{
													OFFSET 0.005814 5.087799 0.009927
												}
											}
										}
									}
								}
								JOINT RightHandIndex1
								{
									OFFSET -24.424698 -1.985657 5.953444
									CHANNELS 3 Xrotation Yrotation Zrotation
									JOINT RightHandIndex2
									{
										OFFSET -6.426697 0.000000 0.000000
										CHANNELS 3 Xrotation Yrotation Zrotation
										JOINT RightHandIndex3
										{
											OFFSET -5.337898 0.000000 0.000000
											CHANNELS 3 Xrotation Yrotation Zrotation
											JOINT RightHandIndex4
											{
												OFFSET -4.409401 0.000000 0.000000
												CHANNELS 3 Xrotation Yrotation Zrotation
												End Site
												{
													OFFSET 0.000000 4.409363 0.014408
												}
											}
										}
									}
								}
								JOINT RightHandMiddle1
								{
									OFFSET -23.810097 0.000000 0.000000
									CHANNELS 3 Xrotation Yrotation Zrotation
									JOINT RightHandMiddle2
									{
										OFFSET -7.176498 0.000000 0.000000
										CHANNELS 3 Xrotation Yrotation Zrotation
										JOINT RightHandMiddle3
										{
											OFFSET -6.774902 0.000000 0.000000
											CHANNELS 3 Xrotation Yrotation Zrotation
											JOINT RightHandMiddle4
											{
												OFFSET -5.403328 0.000000 0.000000
												CHANNELS 3 Xrotation Yrotation Zrotation
												End Site
												{
													OFFSET 0.027702 5.403244 0.017457
												}
											}
										}
									}
								}
								JOINT RightHandRing1
								{
									OFFSET -22.908302 -0.839325 -6.020576
									CHANNELS 3 Xrotation Yrotation Zrotation
									JOINT RightHandRing2
									{
										OFFSET -6.337502 0.000000 0.000000
										CHANNELS 3 Xrotation Yrotation Zrotation
										JOINT RightHandRing3
										{
											OFFSET -5.779297 0.000000 0.000000
											CHANNELS 3 Xrotation Yrotation Zrotation
											JOINT RightHandRing4
											{
												OFFSET -4.965698 0.000000 0.000000
												CHANNELS 3 Xrotation Yrotation Zrotation
												End Site
												{
													OFFSET 0.000000 4.965668 0.016226
												}
											}
										}
									}
								}
								JOINT RightHandPinky1
								{
									OFFSET -20.037003 -1.530334 -10.950259
									CHANNELS 3 Xrotation Yrotation Zrotation
									JOINT RightHandPinky2
									{
										OFFSET -5.254700 0.000000 0.000000
										CHANNELS 3 Xrotation Yrotation Zrotation
										JOINT RightHandPinky3
										{
											OFFSET -4.810204 0.000000 0.000000
											CHANNELS 3 Xrotation Yrotation Zrotation
											JOINT RightHandPinky4
											{
												OFFSET -3.647202 0.000000 0.000000
												CHANNELS 3 Xrotation Yrotation Zrotation
												End Site
												{
													OFFSET 0.000000 3.647186 0.011917
												}
											}
										}
									}
								}
							}
						}
					}
				}
			}
		}
	}
	JOINT LeftUpLeg
	{
		OFFSET 15.427100 -6.655098 0.678600
		CHANNELS 3 Xrotation Yrotation Zrotation
		JOINT LeftLeg
		{
			OFFSET 4.081073 -39.591068 13.024000
			CHANNELS 3 Xrotation Yrotation Zrotation
			JOINT LeftFoot
			{
				OFFSET -4.081074 -37.707932 -15.979700
				CHANNELS 3 Xrotation Yrotation Zrotation
				JOINT LeftToeBase
				{
					OFFSET 5.346399 -15.068900 20.645000
					CHANNELS 3 Xrotation Yrotation Zrotation
					JOINT LeftToe_End
					{
						OFFSET 2.754700 0.931300 11.300900
						CHANNELS 3 Xrotation Yrotation Zrotation
						End Site
						{
							OFFSET 0.000000 11.669021 0.000000
						}
					}
				}
			}
		}
	}
	JOINT RightUpLeg
	{
		OFFSET -15.569500 -6.655098 0.678600
		CHANNELS 3 Xrotation Yrotation Zrotation
		JOINT RightLeg
		{
			OFFSET -4.081825 -39.591045 13.023800
			CHANNELS 3 Xrotation Yrotation Zrotation
			JOINT RightFoot
			{
				OFFSET 4.081824 -37.707954 -15.979600
				CHANNELS 3 Xrotation Yrotation Zrotation
				JOINT RightToeBase
				{
					OFFSET -5.346400 -15.068900 20.645000
					CHANNELS 3 Xrotation Yrotation Zrotation
					JOINT RightToe_End
					{
						OFFSET -2.754700 0.931300 11.300900
						CHANNELS 3 Xrotation Yrotation Zrotation
						End Site
						{
							OFFSET 0.000000 11.669021 0.000000
						}
					}
				}
			}
		}
	}
}
MOTION
Frames: 4
Frame Time: 0.033333
4.791700 76.509239 4.079165 -6.874176 -33.654070 -12.208044 14.189835 2.317909 -1.285847 11.190022 1.976572 -1.355041 11.196397 1.919383 -1.354333 8.363224 1.615579 -3.356204 -2.288767 4.821895 0.588097 0.000002 -0.000001 0.000000 1.742728 -4.438709 -0.447902 -41.906322 -16.507725 -72.658180 0.000004 -110.893182 -0.000002 11.002021 -18.583850 33.718602 -6.141228 -11.690797 -6.761687 9.914107 42.595522 3.409873 -0.422815 8.108090 27.509125 -0.000000 0.000002 -0.000003 0.255310 3.378222 -45.814341 5.654097 5.847750 -88.067455 2.162141 4.544803 -50.866382 -0.000000 0.000000 -0.000000 -0.461472 3.841595 -39.722686 6.450758 5.820348 -95.892871 2.182888 4.561566 -51.127740 0.000000 -0.000001 -0.000001 0.469717 4.966829 -39.799437 8.181045 5.368609 -113.503011 3.200486 5.218113 -63.022968 0.000002 0.000003 0.000001 -3.762439 9.063696 -45.253825 5.342534 5.829009 -85.005297 8.716831 5.103333 -119.369153 -0.000001 -0.000001 -0.000003 6.146890 -5.899565 5.491494 -62.463699 31.632693 88.017171 -3.134065 90.067895 3.138771 38.502671 16.673547 -23.217299 -7.341098 13.749657 7.412324 9.855791 -44.489096 -3.903266 -0.115784 -14.513086 -28.973850 -0.000001 -0.000002 -0.000001 -0.124380 -2.384788 45.108857 4.500592 -4.654537 88.071164 1.723215 -3.618377 50.920102 -0.000003 -0.000002 -0.000004 -0.761624 -2.932901 39.031041 5.133883 -4.632758 95.881649 1.739738 -3.631706 51.181353 0.000000 0.000000 0.000002 0.154759 -4.068818 39.122668 6.509736 -4.273593 113.462891 2.549591 -4.153919 63.067337 -0.000000 0.000001 -0.000000 -4.198879 -8.025512 44.637783 4.252918 -4.639643 85.014798 6.935970 -4.062626 119.322271 0.000001 0.000002 -0.000001 -37.720642 1.075625 22.323964 59.105780 -8.884480 5.960468 -19.029821 -16.238899 -10.575097 -1.594032 -0.000012 -0.000005 -0.000000 0.000002 -0.000000 1.673912 -19.923209 -20.428812 37.344148 -2.295142 -4.017724 -17.449168 -19.577820 28.521849 -0.012997 0.000018 -0.000002 -0.000000 0.000001 -0.000000 
5.343467 76.174156 3.237742 -6.698669 -33.993882 -10.868391 14.809337 2.344807 -0.815217 11.501881 1.929811 -0.861000 11.506779 1.879490 -0.862617 9.027112 1.652114 -3.131131 -3.539272 5.929858 -0.204638 0.000002 -0.000001 0.000001 1.620331 -4.251023 0.259588 -44.435852 -14.830620 -70.455683 0.000046 -109.027783 0.000054 10.589871 -18.105194 33.791811 -6.141228 -11.690798 -6.761685 9.914108 42.595525 3.409875 -0.422814 8.108090 27.509125 -0.000001 0.000000 0.000001 0.255308 3.378221 -45.814337 5.654095 5.847750 -88.067455 2.162139 4.544805 -50.866379 -0.000000 0.000000 0.000001 -0.461474 3.841593 -39.722683 6.450752 5.820347 -95.892871 2.182889 4.561566 -51.127740 -0.000000 -0.000000 0.000000 0.469718 4.966831 -39.799437 8.181042 5.368611 -113.503011 3.200487 5.218116 -63.022968 -0.000001 -0.000001 -0.000001 -3.762438 9.063696 -45.253821 5.342529 5.829009 -85.005297 8.716828 5.103327 -119.369167 -0.000001 0.000001 0.000001 6.362330 -4.166176 4.545499 -65.479582 31.637470 88.076874 -0.000986 87.159006 0.001008 36.563744 17.544268 -21.946820 -7.341092 13.749661 7.412325 9.855795 -44.489089 -3.903270 -0.115785 -14.513090 -28.973850 -0.000001 -0.000003 0.000001 -0.124374 -2.384786 45.108857 4.500591 -4.654537 88.071164 1.723216 -3.618379 50.920102 0.000001 -0.000000 -0.000000 -0.761615 -2.932901 39.031051 5.133884 -4.632754 95.881656 1.739740 -3.631701 51.181353 -0.000002 -0.000001 0.000001 0.154766 -4.068819 39.122664 6.509732 -4.273596 113.462884 2.549588 -4.153917 63.067337 0.000001 -0.000000 -0.000000 -4.198870 -8.025511 44.637783 4.252920 -4.639645 85.014805 6.935971 -4.062625 119.322271 -0.000002 -0.000000 0.000001 -38.449577 1.217188 21.530471 58.729204 -8.901845 4.890497 -17.774468 -16.137529 -10.119589 -1.594032 -0.000009 -0.000005 -0.000000 -0.000000 0.000000 -1.167071 -19.758651 -22.521709 39.526598 -2.287712 -4.483220 -17.785640 -18.926435 28.698307 -0.012997 0.000018 -0.000002 -0.000000 0.000000 -0.000000 
5.706956 75.515427 2.462822 -7.266672 -34.147063 -9.914171 15.234920 2.356028 -0.344988 11.622312 1.859475 -0.414334 11.626514 1.813877 -0.417517 9.580882 1.697556 -2.778006 -4.256716 6.751360 -0.626129 0.000004 -0.000000 0.000001 1.543893 -4.255102 0.856239 -47.517127 -13.303984 -67.984117 0.000047 -106.948099 0.000052 9.705914 -18.457181 33.536727 -6.141228 -11.690801 -6.761687 9.914103 42.595519 3.409874 -0.422814 8.108087 27.509130 0.000000 0.000002 -0.000002 0.255310 3.378220 -45.814341 5.654095 5.847750 -88.067455 2.162140 4.544806 -50.866386 0.000000 0.000000 -0.000001 -0.461472 3.841593 -39.722683 6.450754 5.820350 -95.892871 2.182886 4.561565 -51.127740 -0.000000 0.000001 0.000001 0.469719 4.966829 -39.799437 8.181046 5.368610 -113.503004 3.200487 5.218116 -63.022968 -0.000001 -0.000002 -0.000003 -3.762437 9.063693 -45.253821 5.342534 5.829009 -85.005297 8.716834 5.103327 -119.369153 0.000000 -0.000001 -0.000001 6.581277 -2.012588 3.110151 -68.504366 31.175661 87.989939 0.000181 85.405669 -0.000218 34.618732 18.554629 -21.463081 -7.341098 13.749663 7.412328 9.855802 -44.489089 -3.903270 -0.115777 -14.513083 -28.973854 0.000000 -0.000003 -0.000003 -0.124375 -2.384786 45.108854 4.500591 -4.654539 88.071164 1.723215 -3.618377 50.920102 -0.000001 0.000000 -0.000002 -0.761614 -2.932899 39.031048 5.133882 -4.632756 95.881649 1.739742 -3.631701 51.181353 0.000001 0.000002 0.000002 0.154766 -4.068818 39.122664 6.509736 -4.273598 113.462884 2.549590 -4.153917 63.067337 0.000001 -0.000001 0.000000 -4.198869 -8.025510 44.637783 4.252919 -4.639644 85.014805 6.935968 -4.062629 119.322271 -0.000001 0.000002 -0.000000 -38.702516 1.370290 20.754126 58.909876 -8.823258 4.170277 -17.026080 -16.098034 -9.956702 -1.594032 -0.000010 -0.000005 0.000000 -0.000000 -0.000000 -3.256950 -19.512242 -24.659507 42.084552 -2.323965 -5.042811 -18.532062 -18.349262 29.051950 -0.012997 0.000020 -0.000001 0.000000 -0.000001 0.000000 
5.873385 74.654510 1.778213 -8.312957 -34.653716 -9.155680 15.464050 2.502555 -0.053057 11.505661 1.803283 -0.152586 11.509462 1.761751 -0.156448 9.731928 2.053899 -2.283440 -4.338028 7.718410 -0.779510 -0.000001 -0.000001 0.000001 1.469929 -4.196536 1.103693 -50.711996 -11.687348 -65.054697 0.000056 -105.102548 0.000058 8.597519 -19.315029 31.446847 -6.141225 -11.690799 -6.761687 9.914105 42.595522 3.409874 -0.422814 8.108091 27.509128 -0.000001 0.000000 -0.000000 0.255310 3.378220 -45.814344 5.654096 5.847747 -88.067448 2.162140 4.544808 -50.866386 -0.000000 0.000000 0.000001 -0.461469 3.841591 -39.722686 6.450753 5.820352 -95.892871 2.182888 4.561567 -51.127740 -0.000000 0.000000 -0.000001 0.469719 4.966829 -39.799437 8.181045 5.368613 -113.503011 3.200488 5.218114 -63.022968 -0.000004 0.000001 0.000002 -3.762435 9.063690 -45.253825 5.342535 5.829010 -85.005297 8.716832 5.103327 -119.369167 -0.000001 0.000000 0.000000 6.761555 0.764915 1.157947 -70.954218 30.390503 87.475032 0.000157 85.116854 -0.000187 32.445086 19.567920 -20.827496 -7.341094 13.749663 7.412327 9.855792 -44.489089 -3.903270 -0.115783 -14.513088 -28.973854 -0.000001 -0.000001 -0.000000 -0.124372 -2.384787 45.108851 4.500588 -4.654536 88.071164 1.723214 -3.618377 50.920105 -0.000001 0.000001 -0.000001 -0.761615 -2.932898 39.031044 5.133881 -4.632756 95.881649 1.739737 -3.631705 51.181353 -0.000001 0.000000 -0.000001 0.154765 -4.068818 39.122664 6.509734 -4.273594 113.462884 2.549582 -4.153919 63.067337 0.000001 0.000001 -0.000002 -4.198872 -8.025509 44.637783 4.252921 -4.639647 85.014798 6.935969 -4.062626 119.322271 0.000001 0.000002 -0.000000 -38.378611 1.626067 20.093117 59.417209 -8.811309 3.597347 -16.825186 -15.630762 -10.019025 -1.594032 -0.000008 -0.000005 0.000000 0.000002 -0.000000 -5.135664 -18.945736 -26.966050 44.947142 -2.319939 -5.684436 -19.590620 -17.628525 29.439546 -0.012997 0.000020 -0.000002 0.000000 0.000001 0.000000 
